<svg width="520" height="736" viewBox="0 0 520 736" fill="none" xmlns="http://www.w3.org/2000/svg">
<g clip-path="url(#clip0_1959_2741)">
<rect x="0.5" y="0.5" width="519" height="735" rx="9.5" fill="white" stroke="#C4C4C4"/>
<path d="M40.474 196.49V197.456H38.402V204.036H37.254V191.492H38.402V196.49H40.474ZM32.088 192.444C32.5547 192.444 32.9793 192.547 33.362 192.752C33.7447 192.957 34.076 193.251 34.356 193.634C34.636 194.017 34.8507 194.479 35 195.02C35.1587 195.552 35.238 196.154 35.238 196.826C35.238 197.498 35.1587 198.105 35 198.646C34.8507 199.178 34.636 199.635 34.356 200.018C34.076 200.401 33.7447 200.695 33.362 200.9C32.9793 201.105 32.5547 201.208 32.088 201.208C31.6213 201.208 31.192 201.105 30.8 200.9C30.4173 200.695 30.086 200.401 29.806 200.018C29.526 199.635 29.3067 199.178 29.148 198.646C28.9987 198.105 28.924 197.498 28.924 196.826C28.924 196.154 28.9987 195.552 29.148 195.02C29.3067 194.479 29.526 194.017 29.806 193.634C30.086 193.251 30.4173 192.957 30.8 192.752C31.192 192.547 31.6213 192.444 32.088 192.444ZM32.088 200.186C32.3867 200.186 32.662 200.107 32.914 199.948C33.166 199.789 33.3807 199.565 33.558 199.276C33.7447 198.977 33.8893 198.623 33.992 198.212C34.0947 197.801 34.146 197.339 34.146 196.826C34.146 196.322 34.0947 195.865 33.992 195.454C33.8893 195.034 33.7447 194.679 33.558 194.39C33.3807 194.101 33.166 193.877 32.914 193.718C32.662 193.559 32.3867 193.48 32.088 193.48C31.78 193.48 31.5 193.559 31.248 193.718C30.996 193.877 30.7767 194.101 30.59 194.39C30.4127 194.679 30.2727 195.034 30.17 195.454C30.0673 195.865 30.016 196.322 30.016 196.826C30.016 197.339 30.0673 197.801 30.17 198.212C30.2727 198.623 30.4127 198.977 30.59 199.276C30.7767 199.565 30.996 199.789 31.248 199.948C31.5 200.107 31.78 200.186 32.088 200.186ZM50.7489 191.478H51.8969V204.064H50.7489V191.478ZM45.2749 192.444C45.7416 192.444 46.1709 192.547 46.5629 192.752C46.9549 192.957 47.2909 193.251 47.5709 193.634C47.8509 194.017 48.0702 194.479 48.2289 195.02C48.3876 195.552 48.4669 196.154 48.4669 196.826C48.4669 197.498 48.3876 198.105 48.2289 198.646C48.0702 199.178 47.8509 199.635 47.5709 200.018C47.2909 200.401 46.9549 200.695 46.5629 200.9C46.1709 201.105 45.7416 201.208 45.2749 201.208C44.8082 201.208 44.3789 201.105 43.9869 200.9C43.5949 200.695 43.2589 200.401 42.9789 200.018C42.6989 199.635 42.4796 199.178 42.3209 198.646C42.1622 198.105 42.0829 197.498 42.0829 196.826C42.0829 196.154 42.1622 195.552 42.3209 195.02C42.4796 194.479 42.6989 194.017 42.9789 193.634C43.2589 193.251 43.5949 192.957 43.9869 192.752C44.3789 192.547 44.8082 192.444 45.2749 192.444ZM45.2749 193.48C44.9669 193.48 44.6822 193.559 44.4209 193.718C44.1689 193.877 43.9496 194.101 43.7629 194.39C43.5762 194.679 43.4316 195.034 43.3289 195.454C43.2262 195.865 43.1749 196.322 43.1749 196.826C43.1749 197.339 43.2262 197.801 43.3289 198.212C43.4316 198.623 43.5762 198.977 43.7629 199.276C43.9496 199.565 44.1689 199.789 44.4209 199.948C44.6822 200.107 44.9669 200.186 45.2749 200.186C45.5829 200.186 45.8629 200.107 46.1149 199.948C46.3669 199.789 46.5862 199.565 46.7729 199.276C46.9596 198.977 47.1042 198.623 47.2069 198.212C47.3096 197.801 47.3609 197.339 47.3609 196.826C47.3609 196.322 47.3096 195.865 47.2069 195.454C47.1042 195.034 46.9596 194.679 46.7729 194.39C46.5862 194.101 46.3669 193.877 46.1149 193.718C45.8629 193.559 45.5829 193.48 45.2749 193.48ZM63.6278 191.478H64.7758V204.064H63.6278V191.478ZM56.4458 193.634V199.962C57.0525 199.962 57.6125 199.957 58.1258 199.948C58.6391 199.929 59.1245 199.906 59.5818 199.878C60.0485 199.85 60.5011 199.808 60.9398 199.752C61.3785 199.696 61.8311 199.626 62.2978 199.542L62.4238 200.508C61.9385 200.592 61.4671 200.662 61.0098 200.718C60.5525 200.774 60.0811 200.821 59.5958 200.858C59.1105 200.886 58.6018 200.909 58.0698 200.928C57.5378 200.937 56.9545 200.942 56.3198 200.942H55.3118V192.668H61.2478V193.634H56.4458ZM76.1707 193.676V192.654H68.8067V191.842H77.3047V194.46H69.9687V195.538H77.5287V196.364H68.8347V193.676H76.1707ZM67.3787 197.316H78.7607V198.184H67.3787V197.316ZM69.8987 201.88V203.042H77.7387V203.868H68.7647V201.082H76.2127V200.032H68.7367V199.206H77.3467V201.88H69.8987ZM92.5445 191.492H93.6925V198.226H92.5445V191.492ZM86.9445 192.08C87.4205 192.08 87.8592 192.15 88.2605 192.29C88.6618 192.43 89.0072 192.626 89.2965 192.878C89.5952 193.13 89.8238 193.433 89.9825 193.788C90.1505 194.143 90.2345 194.535 90.2345 194.964C90.2345 195.393 90.1505 195.79 89.9825 196.154C89.8238 196.509 89.5952 196.812 89.2965 197.064C89.0072 197.316 88.6618 197.512 88.2605 197.652C87.8592 197.792 87.4205 197.862 86.9445 197.862C86.4685 197.862 86.0298 197.792 85.6285 197.652C85.2365 197.512 84.8958 197.316 84.6065 197.064C84.3172 196.812 84.0885 196.509 83.9205 196.154C83.7618 195.79 83.6825 195.393 83.6825 194.964C83.6825 194.535 83.7618 194.143 83.9205 193.788C84.0885 193.433 84.3172 193.13 84.6065 192.878C84.8958 192.626 85.2365 192.43 85.6285 192.29C86.0298 192.15 86.4685 192.08 86.9445 192.08ZM86.9445 193.032C86.6365 193.032 86.3472 193.079 86.0765 193.172C85.8152 193.265 85.5912 193.401 85.4045 193.578C85.2178 193.746 85.0685 193.951 84.9565 194.194C84.8538 194.427 84.8025 194.684 84.8025 194.964C84.8025 195.253 84.8538 195.519 84.9565 195.762C85.0685 195.995 85.2178 196.201 85.4045 196.378C85.5912 196.546 85.8152 196.677 86.0765 196.77C86.3472 196.863 86.6365 196.91 86.9445 196.91C87.5885 196.91 88.1112 196.733 88.5125 196.378C88.9138 196.023 89.1145 195.552 89.1145 194.964C89.1145 194.684 89.0585 194.427 88.9465 194.194C88.8438 193.951 88.6945 193.746 88.4985 193.578C88.3118 193.401 88.0832 193.265 87.8125 193.172C87.5512 193.079 87.2618 193.032 86.9445 193.032ZM85.6005 198.842H86.7345V200.382H92.5585V198.842H93.6925V203.868H85.6005V198.842ZM86.7345 201.278V202.944H92.5585V201.278H86.7345ZM105.451 191.492H106.599V199.206H105.451V196.882H103.001V195.958H105.451V194.278H103.001V193.34H105.451V191.492ZM102.903 197.4L103.015 198.324C102.633 198.389 102.255 198.445 101.881 198.492C101.517 198.529 101.13 198.557 100.719 198.576C100.309 198.595 99.8561 198.609 99.3614 198.618C98.8761 198.627 98.3207 198.632 97.6954 198.632H96.7994V194.908H101.055V193.172H96.7574V192.234H102.175V195.79H97.9194V197.694C98.4981 197.694 99.0161 197.689 99.4734 197.68C99.9307 197.671 100.351 197.657 100.733 197.638C101.125 197.61 101.494 197.577 101.839 197.54C102.185 197.503 102.539 197.456 102.903 197.4ZM98.1994 200.816V199.878H106.599V204.05H105.451V200.816H98.1994ZM118.68 191.464H119.786V204.022H118.68V197.708H117.07V203.42H115.992V191.758H117.07V196.77H118.68V191.464ZM112.814 191.842V193.62H115.362V194.558H109.132V193.62H111.68V191.842H112.814ZM112.254 195.398C112.646 195.398 113.006 195.468 113.332 195.608C113.659 195.748 113.939 195.944 114.172 196.196C114.415 196.448 114.602 196.751 114.732 197.106C114.872 197.451 114.942 197.834 114.942 198.254C114.942 198.683 114.872 199.075 114.732 199.43C114.602 199.775 114.415 200.074 114.172 200.326C113.939 200.578 113.659 200.774 113.332 200.914C113.006 201.054 112.646 201.124 112.254 201.124C111.862 201.124 111.503 201.054 111.176 200.914C110.85 200.774 110.565 200.578 110.322 200.326C110.089 200.074 109.902 199.775 109.762 199.43C109.632 199.075 109.566 198.683 109.566 198.254C109.566 197.834 109.632 197.451 109.762 197.106C109.902 196.751 110.089 196.448 110.322 196.196C110.565 195.944 110.85 195.748 111.176 195.608C111.503 195.468 111.862 195.398 112.254 195.398ZM112.254 200.172C112.74 200.172 113.136 199.995 113.444 199.64C113.762 199.276 113.92 198.814 113.92 198.254C113.92 197.983 113.878 197.731 113.794 197.498C113.71 197.265 113.594 197.064 113.444 196.896C113.304 196.728 113.132 196.597 112.926 196.504C112.721 196.411 112.497 196.364 112.254 196.364C111.75 196.364 111.344 196.541 111.036 196.896C110.738 197.241 110.588 197.694 110.588 198.254C110.588 198.814 110.742 199.276 111.05 199.64C111.368 199.995 111.769 200.172 112.254 200.172ZM126.276 197.582L125.842 196.672C126.393 196.588 126.925 196.443 127.438 196.238C127.961 196.023 128.427 195.767 128.838 195.468C129.249 195.16 129.575 194.819 129.818 194.446C130.07 194.063 130.196 193.667 130.196 193.256V193.186H126.234V192.262H135.404V193.186H131.47V193.256C131.47 193.667 131.591 194.063 131.834 194.446C132.086 194.819 132.417 195.16 132.828 195.468C133.239 195.767 133.705 196.023 134.228 196.238C134.76 196.443 135.301 196.588 135.852 196.672L135.404 197.582C134.919 197.498 134.443 197.372 133.976 197.204C133.509 197.036 133.075 196.831 132.674 196.588C132.273 196.336 131.913 196.056 131.596 195.748C131.279 195.431 131.027 195.085 130.84 194.712C130.644 195.085 130.387 195.431 130.07 195.748C129.753 196.056 129.393 196.336 128.992 196.588C128.6 196.831 128.171 197.036 127.704 197.204C127.247 197.372 126.771 197.498 126.276 197.582ZM136.51 198.632L136.524 199.57H131.386V204.036H130.238V199.57H125.17V198.632H136.51ZM147.611 191.478H148.703V204.036H147.611V191.478ZM145.063 195.986V191.758H146.141V203.42H145.063V196.938H142.991V195.986H145.063ZM141.759 192.668V195.02C141.759 195.524 141.815 196.028 141.927 196.532C142.048 197.036 142.216 197.517 142.431 197.974C142.655 198.431 142.926 198.851 143.243 199.234C143.57 199.607 143.938 199.92 144.349 200.172L143.691 201.068C143.094 200.704 142.585 200.209 142.165 199.584C141.754 198.949 141.437 198.249 141.213 197.484C140.989 198.333 140.653 199.094 140.205 199.766C139.766 200.429 139.234 200.956 138.609 201.348L137.895 200.48C138.324 200.228 138.707 199.906 139.043 199.514C139.388 199.122 139.678 198.688 139.911 198.212C140.154 197.727 140.336 197.218 140.457 196.686C140.588 196.145 140.653 195.603 140.653 195.062V192.668H141.759ZM159.496 201.474H162.31V202.426H150.9V201.474H153.7V198.086C153.168 197.815 152.753 197.461 152.454 197.022C152.165 196.574 152.02 196.065 152.02 195.496C152.02 195.011 152.132 194.572 152.356 194.18C152.58 193.779 152.893 193.438 153.294 193.158C153.705 192.878 154.19 192.663 154.75 192.514C155.31 192.355 155.921 192.276 156.584 192.276C157.256 192.276 157.867 192.355 158.418 192.514C158.978 192.663 159.459 192.878 159.86 193.158C160.271 193.438 160.588 193.779 160.812 194.18C161.036 194.572 161.148 195.011 161.148 195.496C161.148 196.065 161.003 196.569 160.714 197.008C160.434 197.447 160.028 197.801 159.496 198.072V201.474ZM156.584 193.172C156.08 193.172 155.613 193.228 155.184 193.34C154.764 193.452 154.4 193.611 154.092 193.816C153.793 194.012 153.555 194.255 153.378 194.544C153.21 194.824 153.126 195.141 153.126 195.496C153.126 195.841 153.21 196.159 153.378 196.448C153.555 196.737 153.793 196.985 154.092 197.19C154.4 197.386 154.764 197.54 155.184 197.652C155.613 197.764 156.08 197.82 156.584 197.82C157.088 197.82 157.55 197.764 157.97 197.652C158.399 197.54 158.768 197.386 159.076 197.19C159.384 196.985 159.622 196.737 159.79 196.448C159.967 196.159 160.056 195.841 160.056 195.496C160.056 195.141 159.967 194.824 159.79 194.544C159.622 194.255 159.384 194.012 159.076 193.816C158.768 193.611 158.399 193.452 157.97 193.34C157.55 193.228 157.088 193.172 156.584 193.172ZM154.848 198.52V201.474H158.348V198.52C157.723 198.651 157.135 198.716 156.584 198.716C155.996 198.716 155.417 198.651 154.848 198.52ZM163.639 203.196V201.88H164.913V203.196H163.639Z" fill="#F4492E"/>
<path d="M201.904 34.176H196.16V31.712H200.672V30.384H192.016V28.368H200.352V23.792H190.368V25.12H198.72V27.056H190.4V31.712H194.512V34.176H188.816V35.536H201.904V34.176ZM213.279 25.552V25.776C213.279 27.664 213.279 29.776 212.719 32.624L214.383 32.8C214.943 29.728 214.927 27.712 214.927 25.776V24.224H204.927V25.552H213.279ZM216.607 33.856H203.535V35.216H216.607V33.856ZM230.158 33.28V22.784H228.51V33.28H230.158ZM226.19 27.36C226.19 25.232 224.542 23.744 222.366 23.744C220.19 23.744 218.526 25.232 218.526 27.36C218.526 29.456 220.19 30.976 222.366 30.976C224.542 30.976 226.19 29.456 226.19 27.36ZM220.142 27.36C220.142 26.016 221.086 25.168 222.366 25.168C223.63 25.168 224.59 26.016 224.59 27.36C224.59 28.672 223.63 29.552 222.366 29.552C221.086 29.552 220.142 28.672 220.142 27.36ZM230.574 35.616H222.382V32.224H220.718V36.96H230.574V35.616ZM252.273 30.576V29.248H248.705V25.392H252.129V24.048H247.057V30.576H252.273ZM246.433 30.208L246.289 28.848C245.073 29.104 244.065 29.168 242.849 29.216V25.408H246.161V24.064H241.201V30.576H242.049C243.633 30.576 244.897 30.512 246.433 30.208ZM253.217 34.112H247.457V31.248H245.809V34.112H240.129V35.472H253.217V34.112ZM266.447 28.272V26.928H258.175V23.296H256.527V28.272H266.447ZM267.951 30H254.831V31.328H267.951V30ZM258.079 35.584V32.656H256.431V36.912H266.527V35.584H258.079ZM285.032 22.768H283.368V37.232H285.032V22.768ZM282.248 25.792V24.464H278.712V22.8H277.064V24.464H273.512V25.792H282.248ZM278.712 33.184V31.824C280.376 31.568 281.416 30.592 281.416 29.184C281.416 27.568 279.992 26.496 277.896 26.496C275.8 26.496 274.36 27.568 274.36 29.184C274.36 30.592 275.4 31.568 277.064 31.824V33.232C275.704 33.28 274.376 33.28 273.224 33.28L273.432 34.64C276.056 34.64 279.48 34.592 282.664 34.048L282.552 32.848C281.32 33.024 280.008 33.104 278.712 33.184ZM275.928 29.184C275.928 28.288 276.728 27.76 277.896 27.76C279.048 27.76 279.848 28.288 279.848 29.184C279.848 30.08 279.048 30.624 277.896 30.624C276.728 30.624 275.928 30.08 275.928 29.184ZM298.183 31.264H295.351V32.416H298.183V33.76H299.831V22.768H298.183V31.264ZM292.471 28.416C294.583 28.416 296.039 27.408 296.039 25.872C296.039 24.336 294.583 23.328 292.471 23.328C290.359 23.328 288.887 24.336 288.887 25.872C288.887 27.408 290.359 28.416 292.471 28.416ZM292.471 24.544C293.687 24.544 294.471 25.056 294.471 25.872C294.471 26.688 293.687 27.2 292.471 27.2C291.255 27.2 290.455 26.688 290.455 25.872C290.455 25.056 291.255 24.544 292.471 24.544ZM291.815 30.608V33.296H293.463V30.512C294.695 30.448 295.959 30.304 297.175 30.096L297.047 28.912C293.975 29.296 290.439 29.344 287.783 29.344L287.991 30.688C289.143 30.688 290.407 30.672 291.815 30.608ZM300.167 35.616H291.383V32.688H289.735V36.96H300.167V35.616ZM315.958 29.856V28.48H313.766V22.768H312.118V37.216H313.766V29.856H315.958ZM309.99 24.304H303.286V25.648H308.342C308.006 28.96 306.07 31.52 302.566 33.328L303.478 34.592C308.198 32.208 309.99 28.496 309.99 24.304ZM329.204 22.784H327.556V30.544H329.204V22.784ZM321.412 23.44C319.188 23.44 317.572 24.816 317.572 26.8C317.572 28.784 319.188 30.16 321.412 30.16C323.62 30.16 325.236 28.784 325.236 26.8C325.236 24.816 323.62 23.44 321.412 23.44ZM321.412 24.8C322.708 24.8 323.636 25.584 323.636 26.8C323.636 28.016 322.708 28.8 321.412 28.8C320.068 28.8 319.188 28.016 319.188 26.8C319.188 25.584 320.068 24.8 321.412 24.8ZM321.396 31.216H319.764V37.056H329.204V31.216H327.572V32.816H321.396V31.216ZM321.396 35.728V34.096H327.572V35.728H321.396Z" fill="black"/>
<rect y="58" width="520" height="1" fill="#C4C4C4"/>
<path d="M39.96 87.48H37.9V105.56H39.96V87.48ZM30.9 95.84C33.6 95.84 35.56 94.28 35.56 92.04C35.56 89.82 33.6 88.26 30.9 88.26C28.2 88.26 26.24 89.82 26.24 92.04C26.24 94.28 28.2 95.84 30.9 95.84ZM30.9 89.96C32.5 89.96 33.58 90.76 33.58 92.04C33.58 93.32 32.5 94.14 30.9 94.14C29.3 94.14 28.22 93.32 28.22 92.04C28.22 90.76 29.3 89.96 30.9 89.96ZM36.86 98.04L36.72 96.52C32.84 97.1 28.26 97.16 25.02 97.16L25.26 98.86C26.7 98.86 28.26 98.84 29.96 98.78V105H32.02V98.66C33.62 98.52 35.26 98.36 36.86 98.04ZM58.3384 87.48H56.2784V105.54H58.3384V87.48ZM46.5184 99.22V89.24H44.4784V100.98H46.0184C48.8384 100.98 51.6984 100.76 54.8384 100.12L54.6184 98.4C51.7184 98.98 49.0984 99.2 46.5184 99.22ZM65.6969 88.72H63.6569V98.24H76.2969V88.72H74.2569V91.88H65.6969V88.72ZM65.6969 96.58V93.52H74.2569V96.58H65.6969ZM78.1769 101.58H61.8169V103.28H78.1769V101.58ZM95.6353 87.48H93.6753V105.52H95.6353V87.48ZM90.0553 87.82V94.32H88.1153C87.8953 90.94 86.4553 88.88 84.2753 88.88C81.9553 88.88 80.3953 91.32 80.3953 95.28C80.3953 99.22 81.9553 101.7 84.2753 101.7C86.4353 101.7 87.9753 99.54 88.1353 96.02H90.0553V104.68H91.9753V87.82H90.0553ZM84.2753 99.76C82.9953 99.76 82.2753 98.18 82.2753 95.28C82.2753 92.38 82.9953 90.82 84.2753 90.82C85.5553 90.82 86.2753 92.38 86.2753 95.28C86.2753 98.18 85.5553 99.76 84.2753 99.76ZM113.614 87.44H111.534V93.38H107.674V95.06H111.534V105.56H113.614V87.44ZM105.154 91.92V88.94H103.074V91.92C103.074 95.3 101.314 98.78 98.4938 100.16L99.7938 101.8C101.874 100.74 103.334 98.66 104.134 96.08C104.914 98.5 106.334 100.48 108.414 101.5L109.634 99.84C106.854 98.56 105.154 95.26 105.154 91.92ZM136.485 87.46H134.405V91.36H130.145C129.325 89.74 128.025 88.8 126.345 88.8C123.685 88.8 121.785 91.28 121.785 95.16C121.785 99.08 123.685 101.54 126.345 101.54C128.105 101.54 129.465 100.5 130.245 98.72H134.405V105.58H136.485V87.46ZM126.345 99.7C124.805 99.7 123.725 98.06 123.725 95.16C123.725 92.36 124.805 90.66 126.345 90.66C127.945 90.66 128.965 92.34 128.965 95.16C128.965 98.06 127.945 99.7 126.345 99.7ZM134.405 97.02H130.765C130.865 96.44 130.925 95.86 130.925 95.16C130.925 94.38 130.845 93.72 130.705 93.06H134.405V97.02ZM154.843 87.44H152.783V94.22H149.623V95.92H152.783V105.56H154.843V87.44ZM142.543 99.6V95.62H148.583V89.08H140.483V90.74H146.563V93.96H140.523V101.3H141.943C145.103 101.3 147.443 101.22 150.143 100.74L149.963 99.06C147.503 99.48 145.303 99.6 142.543 99.6ZM172.502 95.36V88.04H170.462V90.14H162.422V88.04H160.382V95.36H172.502ZM170.462 91.72V93.74H162.422V91.72H170.462ZM174.642 96.88H158.262V98.54H165.582V101.76H167.642V98.54H174.642V96.88ZM162.322 103.52V100.26H160.262V105.2H172.822V103.52H162.322ZM191.54 87.46H189.46V105.56H191.54V87.46ZM182.5 88.74C179.68 88.74 177.6 90.52 177.6 93.08C177.6 95.64 179.68 97.42 182.5 97.42C185.32 97.42 187.42 95.64 187.42 93.08C187.42 90.52 185.32 88.74 182.5 88.74ZM182.5 90.5C184.18 90.5 185.4 91.5 185.4 93.08C185.4 94.64 184.18 95.66 182.5 95.66C180.84 95.66 179.62 94.64 179.62 93.08C179.62 91.48 180.82 90.5 182.5 90.5ZM176.76 100.04L177.02 101.74C180.24 101.74 184.52 101.68 188.52 100.94L188.38 99.44C184.48 100.02 180.02 100.04 176.76 100.04ZM208.731 96.22H215.911V94.56H213.451C213.871 92.48 213.871 90.94 213.871 89.58V88.18H201.611V89.86H211.851C211.851 91.14 211.811 92.62 211.391 94.56H199.551V96.22H206.671V98.76C203.251 98.98 201.391 100.14 201.391 102.14C201.391 104.3 203.791 105.56 207.691 105.56C211.611 105.56 213.991 104.3 213.991 102.14C213.991 100.14 212.151 98.98 208.731 98.76V96.22ZM211.911 102.14C211.911 103.28 210.431 103.9 207.691 103.9C204.951 103.9 203.471 103.28 203.471 102.14C203.471 100.94 204.951 100.38 207.691 100.38C210.431 100.38 211.911 100.94 211.911 102.14ZM234.31 94.94H231.81C232.27 92.78 232.27 91.2 232.27 89.76V88.36H220.01V90.04H230.25C230.25 91.4 230.21 92.92 229.75 94.94H217.95V96.62H234.31V94.94ZM219.93 98.8V105.32H232.27V98.8H219.93ZM221.95 103.68V100.44H230.25V103.68H221.95ZM237.148 93.44L237.888 95.04C241.108 94.7 243.528 93.4 244.508 91.54C245.468 93.4 247.928 94.7 251.128 95.04L251.848 93.44C248.488 93.12 246.148 91.66 245.888 90.02H251.188V88.36H237.848V90.02H243.108C242.848 91.66 240.508 93.12 237.148 93.44ZM252.668 95.96H236.328V97.62H252.668V95.96ZM244.468 98.92C240.608 98.92 238.248 100.14 238.248 102.24C238.248 104.34 240.608 105.54 244.468 105.54C248.448 105.54 250.688 104.34 250.688 102.24C250.688 100.14 248.348 98.92 244.468 98.92ZM244.468 103.92C241.808 103.92 240.348 103.36 240.348 102.24C240.348 101.12 241.808 100.54 244.468 100.54C247.128 100.54 248.608 101.12 248.608 102.24C248.608 103.36 247.128 103.92 244.468 103.92ZM262.907 93.98C267.047 93.98 269.347 92.88 269.347 90.88C269.347 88.86 267.047 87.76 262.907 87.76C258.747 87.76 256.467 88.86 256.467 90.88C256.467 92.88 258.747 93.98 262.907 93.98ZM262.907 89.3C265.727 89.3 267.207 89.84 267.207 90.88C267.207 91.9 265.727 92.44 262.907 92.44C260.087 92.44 258.607 91.9 258.607 90.88C258.607 89.84 260.087 89.3 262.907 89.3ZM271.087 95.04H254.727V96.68H271.087V95.04ZM258.747 103.8V102.3H269.027V97.98H256.667V99.54H267.007V100.84H256.707V105.38H269.547V103.8H258.747ZM292.998 87.48H291.038V94.96H289.118V87.86H287.198V104.7H289.118V96.66H291.038V105.54H292.998V87.48ZM283.038 90.42V88H280.998V90.42H277.578V92.08H286.418V90.42H283.038ZM282.018 93.1C279.718 93.1 278.098 94.8 278.098 97.3C278.098 99.78 279.718 101.5 282.018 101.5C284.318 101.5 285.938 99.78 285.938 97.3C285.938 94.8 284.318 93.1 282.018 93.1ZM282.018 99.78C280.798 99.78 279.938 98.82 279.938 97.3C279.938 95.78 280.798 94.8 282.018 94.8C283.238 94.8 284.098 95.78 284.098 97.3C284.098 98.82 283.238 99.78 282.018 99.78ZM304.736 91.54H308.916V93.4H304.496V95H308.916V96.64H310.976V87.48H308.916V89.94H305.176C305.276 89.48 305.316 88.92 305.316 88.28H297.236V89.94H303.036C302.736 92.48 300.556 94.42 296.256 95.36L296.976 97.04C301.056 96.14 303.616 94.36 304.736 91.54ZM311.476 103.72H301.316V102.06H310.976V97.38H299.216V99.02H308.916V100.52H299.256V105.38H311.476V103.72ZM331.215 96.46V94.74H328.435V87.48H326.355V105.56H328.435V96.46H331.215ZM320.675 90.26V87.74H318.615V90.26H314.315V91.94H324.895V90.26H320.675ZM319.675 93.22C317.055 93.22 315.195 94.96 315.195 97.44C315.195 99.92 317.055 101.66 319.675 101.66C322.235 101.66 324.155 99.92 324.155 97.44C324.155 94.96 322.235 93.22 319.675 93.22ZM319.675 99.96C318.215 99.96 317.155 98.96 317.155 97.44C317.155 95.92 318.215 94.92 319.675 94.92C321.135 94.92 322.195 95.92 322.195 97.44C322.195 98.96 321.135 99.96 319.675 99.96ZM348.233 87.48H346.273V105.54H348.233V87.48ZM342.593 87.82V93.8H339.933V95.48H342.593V104.7H344.533V87.82H342.593ZM338.353 92.3V89.14H336.353V92.4C336.353 95.48 335.113 98.7 332.553 100.24L333.813 101.8C335.573 100.74 336.733 98.88 337.373 96.62C337.993 98.64 339.033 100.38 340.713 101.4L341.873 99.8C339.453 98.24 338.353 95.24 338.353 92.3ZM367.571 101.64H363.711V96.94C365.151 96.12 366.011 94.84 366.011 93.24C366.011 90.36 363.211 88.52 359.371 88.52C355.511 88.52 352.731 90.36 352.731 93.24C352.731 94.84 353.591 96.14 355.031 96.94V101.64H351.211V103.32H367.571V101.64ZM359.371 90.14C362.091 90.14 363.991 91.34 363.991 93.24C363.991 95.16 362.091 96.36 359.371 96.36C356.631 96.36 354.731 95.16 354.731 93.24C354.731 91.34 356.631 90.14 359.371 90.14ZM357.091 101.64V97.72C357.791 97.88 358.551 97.96 359.371 97.96C360.171 97.96 360.951 97.88 361.651 97.7V101.64H357.091ZM372.79 99.88L373.19 88.94H370.87L370.93 91.3L371.25 99.88H372.79ZM370.85 104.26H373.21V101.78H370.85V104.26ZM383.718 94.62V92.14H381.358V94.62H383.718ZM383.718 102.86V100.38H381.358V102.86H383.718ZM386.052 106.26L387.492 106.9C389.392 103.86 390.472 100.64 390.472 96.66C390.472 92.72 389.392 89.46 387.492 86.44L386.052 87.06C387.812 89.96 388.572 93.22 388.572 96.66C388.572 100.12 387.812 103.36 386.052 106.26Z" fill="black"/>
<rect x="25" y="134" width="470" height="48" rx="4" fill="white" stroke="#F4492E" stroke-width="2"/>
<path d="M54.256 156.56V157.664H51.888V165.184H50.576V150.848H51.888V156.56H54.256ZM44.672 151.936C45.2053 151.936 45.6907 152.053 46.128 152.288C46.5653 152.523 46.944 152.859 47.264 153.296C47.584 153.733 47.8293 154.261 48 154.88C48.1813 155.488 48.272 156.176 48.272 156.944C48.272 157.712 48.1813 158.405 48 159.024C47.8293 159.632 47.584 160.155 47.264 160.592C46.944 161.029 46.5653 161.365 46.128 161.6C45.6907 161.835 45.2053 161.952 44.672 161.952C44.1387 161.952 43.648 161.835 43.2 161.6C42.7627 161.365 42.384 161.029 42.064 160.592C41.744 160.155 41.4933 159.632 41.312 159.024C41.1413 158.405 41.056 157.712 41.056 156.944C41.056 156.176 41.1413 155.488 41.312 154.88C41.4933 154.261 41.744 153.733 42.064 153.296C42.384 152.859 42.7627 152.523 43.2 152.288C43.648 152.053 44.1387 151.936 44.672 151.936ZM44.672 160.784C45.0133 160.784 45.328 160.693 45.616 160.512C45.904 160.331 46.1493 160.075 46.352 159.744C46.5653 159.403 46.7307 158.997 46.848 158.528C46.9653 158.059 47.024 157.531 47.024 156.944C47.024 156.368 46.9653 155.845 46.848 155.376C46.7307 154.896 46.5653 154.491 46.352 154.16C46.1493 153.829 45.904 153.573 45.616 153.392C45.328 153.211 45.0133 153.12 44.672 153.12C44.32 153.12 44 153.211 43.712 153.392C43.424 153.573 43.1733 153.829 42.96 154.16C42.7573 154.491 42.5973 154.896 42.48 155.376C42.3627 155.845 42.304 156.368 42.304 156.944C42.304 157.531 42.3627 158.059 42.48 158.528C42.5973 158.997 42.7573 159.403 42.96 159.744C43.1733 160.075 43.424 160.331 43.712 160.512C44 160.693 44.32 160.784 44.672 160.784ZM65.9988 150.832H67.3108V165.216H65.9988V150.832ZM59.7428 151.936C60.2761 151.936 60.7668 152.053 61.2148 152.288C61.6628 152.523 62.0468 152.859 62.3668 153.296C62.6868 153.733 62.9374 154.261 63.1188 154.88C63.3001 155.488 63.3908 156.176 63.3908 156.944C63.3908 157.712 63.3001 158.405 63.1188 159.024C62.9374 159.632 62.6868 160.155 62.3668 160.592C62.0468 161.029 61.6628 161.365 61.2148 161.6C60.7668 161.835 60.2761 161.952 59.7428 161.952C59.2094 161.952 58.7188 161.835 58.2708 161.6C57.8228 161.365 57.4388 161.029 57.1188 160.592C56.7988 160.155 56.5481 159.632 56.3668 159.024C56.1854 158.405 56.0948 157.712 56.0948 156.944C56.0948 156.176 56.1854 155.488 56.3668 154.88C56.5481 154.261 56.7988 153.733 57.1188 153.296C57.4388 152.859 57.8228 152.523 58.2708 152.288C58.7188 152.053 59.2094 151.936 59.7428 151.936ZM59.7428 153.12C59.3908 153.12 59.0654 153.211 58.7668 153.392C58.4788 153.573 58.2281 153.829 58.0148 154.16C57.8014 154.491 57.6361 154.896 57.5188 155.376C57.4014 155.845 57.3428 156.368 57.3428 156.944C57.3428 157.531 57.4014 158.059 57.5188 158.528C57.6361 158.997 57.8014 159.403 58.0148 159.744C58.2281 160.075 58.4788 160.331 58.7668 160.512C59.0654 160.693 59.3908 160.784 59.7428 160.784C60.0948 160.784 60.4148 160.693 60.7028 160.512C60.9908 160.331 61.2414 160.075 61.4548 159.744C61.6681 159.403 61.8334 158.997 61.9508 158.528C62.0681 158.059 62.1268 157.531 62.1268 156.944C62.1268 156.368 62.0681 155.845 61.9508 155.376C61.8334 154.896 61.6681 154.491 61.4548 154.16C61.2414 153.829 60.9908 153.573 60.7028 153.392C60.4148 153.211 60.0948 153.12 59.7428 153.12ZM80.7175 150.832H82.0295V165.216H80.7175V150.832ZM72.5095 153.296V160.528C73.2028 160.528 73.8428 160.523 74.4295 160.512C75.0162 160.491 75.5708 160.464 76.0935 160.432C76.6268 160.4 77.1442 160.352 77.6455 160.288C78.1468 160.224 78.6642 160.144 79.1975 160.048L79.3415 161.152C78.7868 161.248 78.2482 161.328 77.7255 161.392C77.2028 161.456 76.6642 161.509 76.1095 161.552C75.5548 161.584 74.9735 161.611 74.3655 161.632C73.7575 161.643 73.0908 161.648 72.3655 161.648H71.2135V152.192H77.9975V153.296H72.5095Z" fill="#767676"/>
<rect x="24.5" y="217.5" width="471" height="49" rx="4.5" fill="white" stroke="#C4C4C4"/>
<path d="M52.704 234.768H51.04V249.264H52.704V234.768ZM43.216 235.968H41.584V245.824H48.528V235.968H46.88V239.648H43.216V235.968ZM43.216 244.496V240.96H46.88V244.496H43.216ZM67.4388 242.16V234.784H65.7748V242.16H67.4388ZM63.1188 241.552V235.552H56.2708V241.552H63.1188ZM61.5188 236.864V240.24H57.8868V236.864H61.5188ZM67.8708 247.808H59.6148V246.528H67.4388V242.848H57.9508V244.128H65.8068V245.312H57.9828V249.104H67.8708V247.808ZM77.5655 243.12V240.096H80.5735V245.488H82.2215V234.784H80.5735V238.752H77.5655V235.744H75.9495V238.128H72.5415V235.744H70.9095V243.12H77.5655ZM75.9495 239.424V241.776H72.5415V239.424H75.9495ZM82.5575 247.616H74.4775V244.432H72.8135V248.96H82.5575V247.616ZM97.3883 238.08V236.752H92.3163V234.976H90.6683V236.752H85.5643V238.08H97.3883ZM98.0603 246.304H92.3163V244.448C94.8283 244.256 96.2843 243.28 96.2843 241.68C96.2843 239.936 94.4283 238.912 91.4683 238.912C88.5243 238.912 86.6683 239.936 86.6683 241.68C86.6683 243.28 88.1562 244.272 90.6683 244.448V246.304H84.9563V247.664H98.0603V246.304ZM88.3483 241.68C88.3483 240.72 89.4683 240.192 91.4683 240.192C93.4683 240.192 94.6043 240.72 94.6043 241.68C94.6043 242.64 93.4683 243.184 91.4683 243.184C89.4683 243.184 88.3483 242.64 88.3483 241.68Z" fill="#767676"/>
<rect x="24" y="325" width="472" height="50" rx="5" fill="#2F80ED"/>
<path d="M250.786 353.786H244.45V351.32H249.472V349.412H239.86V347.558H249.094V342.032H237.484V343.922H246.754V345.704H237.502V351.32H242.074V353.786H235.774V355.73H250.786V353.786ZM263.115 344.39V344.462C263.115 346.712 263.097 349.07 262.521 352.238L264.879 352.454C265.509 349.052 265.491 346.784 265.491 344.462V342.5H253.881V344.39H263.115ZM267.327 353.444H252.333V355.388H267.327V353.444ZM282.661 352.886V340.988H280.267V352.886H282.661ZM278.143 346.244C278.143 343.796 276.181 342.032 273.643 342.032C271.105 342.032 269.125 343.796 269.125 346.244C269.125 348.656 271.105 350.438 273.643 350.438C276.181 350.438 278.143 348.656 278.143 346.244ZM271.447 346.244C271.447 344.876 272.419 344.084 273.643 344.084C274.885 344.084 275.821 344.876 275.821 346.244C275.821 347.612 274.885 348.386 273.643 348.386C272.419 348.386 271.447 347.612 271.447 346.244ZM283.075 355.37H274.003V351.716H271.627V357.26H283.075V355.37Z" fill="white"/>
<path d="M71.904 298.176H66.16V295.712H70.672V294.384H62.016V292.368H70.352V287.792H60.368V289.12H68.72V291.056H60.4V295.712H64.512V298.176H58.816V299.536H71.904V298.176ZM83.2788 289.552V289.776C83.2788 291.664 83.2788 293.776 82.7188 296.624L84.3828 296.8C84.9428 293.728 84.9268 291.712 84.9268 289.776V288.224H74.9268V289.552H83.2788ZM86.6068 297.856H73.5348V299.216H86.6068V297.856ZM100.158 297.28V286.784H98.5095V297.28H100.158ZM96.1895 291.36C96.1895 289.232 94.5415 287.744 92.3655 287.744C90.1895 287.744 88.5255 289.232 88.5255 291.36C88.5255 293.456 90.1895 294.976 92.3655 294.976C94.5415 294.976 96.1895 293.456 96.1895 291.36ZM90.1415 291.36C90.1415 290.016 91.0855 289.168 92.3655 289.168C93.6295 289.168 94.5895 290.016 94.5895 291.36C94.5895 292.672 93.6295 293.552 92.3655 293.552C91.0855 293.552 90.1415 292.672 90.1415 291.36ZM100.574 299.616H92.3815V296.224H90.7175V300.96H100.574V299.616ZM119.878 290.352H117.83V286.768H116.182V295.456H117.83V291.712H119.878V290.352ZM114.086 294.688L114.95 293.392C112.806 292.656 111.574 290.944 111.574 289.072V287.52H109.91V288.944C109.91 291.04 108.678 293.008 106.406 293.776L107.286 295.088C108.95 294.464 110.134 293.264 110.774 291.664C111.398 293.024 112.534 294.128 114.086 294.688ZM113.174 295.808C110.198 295.808 108.358 296.8 108.358 298.512C108.358 300.224 110.198 301.232 113.174 301.232C116.182 301.232 117.99 300.224 117.99 298.512C117.99 296.8 116.182 295.808 113.174 295.808ZM113.174 299.936C111.11 299.936 109.99 299.472 109.99 298.512C109.99 297.616 111.11 297.104 113.174 297.104C115.238 297.104 116.358 297.616 116.358 298.512C116.358 299.472 115.238 299.936 113.174 299.936ZM133.605 286.784H132.037V292.496H130.421V287.056H128.885V300.544H130.421V293.84H132.037V301.216H133.605V286.784ZM123.365 296.416V293.472H127.285V292.176H123.365V289.696H127.541V288.368H121.781V297.776H122.757C125.013 297.776 126.421 297.728 128.085 297.424L127.941 296.08C126.469 296.336 125.221 296.416 123.365 296.416ZM146.078 293.696C149.102 293.696 151.198 292.464 151.198 290.496C151.198 288.56 149.102 287.312 146.078 287.312C143.022 287.312 140.942 288.56 140.942 290.496C140.942 292.464 143.022 293.696 146.078 293.696ZM146.078 288.64C148.126 288.64 149.502 289.344 149.502 290.496C149.502 291.664 148.142 292.368 146.078 292.368C143.95 292.368 142.638 291.664 142.638 290.496C142.638 289.344 143.998 288.64 146.078 288.64ZM152.67 296.288L152.654 294.928H139.55V296.288H142.75V301.232H144.43V296.288H147.726V301.232H149.406V296.288H152.67ZM166.173 286.784H164.509V301.232H166.173V286.784ZM159.613 290.96V289.584H162.829V288.224H154.733V289.584H157.949V290.96C157.949 293.408 156.461 296.16 154.221 297.168L155.165 298.48C156.861 297.68 158.157 295.936 158.797 293.936C159.485 295.808 160.765 297.36 162.445 298.112L163.357 296.816C161.101 295.84 159.613 293.376 159.613 290.96Z" fill="#767676"/>
<circle cx="39" cy="294" r="11" fill="#2F80ED"/>
<path d="M43.5 291.5L38.5 297L35 293.5" stroke="white" stroke-linecap="round" stroke-linejoin="round"/>
<path d="M166.708 399.018V399.942H159.078V399.018H162.326V397.492H163.474V399.018H166.708ZM167.828 397.492H168.976V410.036H167.828V397.492ZM163.474 405.276V406.592C164.071 406.564 164.664 406.527 165.252 406.48C165.849 406.433 166.442 406.373 167.03 406.298L167.114 407.152C166.414 407.264 165.705 407.353 164.986 407.418C164.267 407.483 163.558 407.535 162.858 407.572C162.167 407.609 161.491 407.633 160.828 407.642C160.175 407.651 159.559 407.656 158.98 407.656L158.812 406.69C159.344 406.69 159.904 406.685 160.492 406.676C161.089 406.667 161.701 406.653 162.326 406.634V405.29C161.57 405.197 160.973 404.949 160.534 404.548C160.095 404.147 159.876 403.624 159.876 402.98C159.876 402.625 159.946 402.308 160.086 402.028C160.235 401.739 160.441 401.491 160.702 401.286C160.973 401.081 161.295 400.927 161.668 400.824C162.041 400.712 162.452 400.656 162.9 400.656C163.348 400.656 163.754 400.712 164.118 400.824C164.491 400.927 164.809 401.081 165.07 401.286C165.341 401.491 165.546 401.739 165.686 402.028C165.835 402.308 165.91 402.625 165.91 402.98C165.91 403.605 165.691 404.123 165.252 404.534C164.823 404.935 164.23 405.183 163.474 405.276ZM160.968 402.98C160.968 403.428 161.141 403.778 161.486 404.03C161.841 404.282 162.312 404.408 162.9 404.408C163.469 404.408 163.931 404.282 164.286 404.03C164.641 403.778 164.818 403.428 164.818 402.98C164.818 402.532 164.641 402.182 164.286 401.93C163.931 401.669 163.469 401.538 162.9 401.538C162.312 401.538 161.841 401.669 161.486 401.93C161.141 402.182 160.968 402.532 160.968 402.98ZM178.201 404.898H180.749V397.478H181.897V407.04H180.749V405.752H178.201V404.898ZM175.639 402.364C175.182 402.364 174.762 402.313 174.379 402.21C174.006 402.107 173.679 401.963 173.399 401.776C173.128 401.58 172.918 401.347 172.769 401.076C172.62 400.805 172.545 400.502 172.545 400.166C172.545 399.839 172.62 399.541 172.769 399.27C172.918 398.999 173.128 398.771 173.399 398.584C173.679 398.388 174.006 398.239 174.379 398.136C174.762 398.033 175.182 397.982 175.639 397.982C176.096 397.982 176.512 398.033 176.885 398.136C177.268 398.239 177.594 398.388 177.865 398.584C178.145 398.771 178.36 398.999 178.509 399.27C178.658 399.541 178.733 399.839 178.733 400.166C178.733 400.502 178.658 400.805 178.509 401.076C178.36 401.347 178.145 401.58 177.865 401.776C177.594 401.963 177.268 402.107 176.885 402.21C176.512 402.313 176.096 402.364 175.639 402.364ZM175.639 398.836C175.042 398.836 174.556 398.957 174.183 399.2C173.819 399.443 173.637 399.765 173.637 400.166C173.637 400.586 173.819 400.917 174.183 401.16C174.556 401.393 175.042 401.51 175.639 401.51C176.236 401.51 176.717 401.393 177.081 401.16C177.454 400.917 177.641 400.586 177.641 400.166C177.641 399.765 177.454 399.443 177.081 399.2C176.717 398.957 176.236 398.836 175.639 398.836ZM175.191 406.592V404.17C174.566 404.198 173.959 404.217 173.371 404.226C172.792 404.235 172.237 404.24 171.705 404.24L171.551 403.288C172.13 403.288 172.75 403.288 173.413 403.288C174.085 403.279 174.771 403.26 175.471 403.232C176.171 403.204 176.876 403.167 177.585 403.12C178.294 403.073 178.98 403.008 179.643 402.924L179.741 403.75C179.181 403.834 178.616 403.909 178.047 403.974C177.478 404.03 176.908 404.077 176.339 404.114V406.592H175.191ZM174.491 408.818H182.219V409.756H173.343V406.102H174.491V408.818ZM196.176 402.574V403.526H194.16V410.036H193.012V397.478H194.16V402.574H196.176ZM185.172 398.822H190.912C190.912 399.718 190.804 400.586 190.59 401.426C190.375 402.266 190.039 403.064 189.582 403.82C189.124 404.576 188.536 405.281 187.818 405.934C187.099 406.578 186.231 407.152 185.214 407.656L184.584 406.76C186.226 405.939 187.468 404.949 188.308 403.792C189.157 402.635 189.647 401.295 189.778 399.774H185.172V398.822ZM206.535 397.492H207.683V404.226H206.535V397.492ZM200.935 398.08C201.411 398.08 201.849 398.15 202.251 398.29C202.652 398.43 202.997 398.626 203.287 398.878C203.585 399.13 203.814 399.433 203.973 399.788C204.141 400.143 204.225 400.535 204.225 400.964C204.225 401.393 204.141 401.79 203.973 402.154C203.814 402.509 203.585 402.812 203.287 403.064C202.997 403.316 202.652 403.512 202.251 403.652C201.849 403.792 201.411 403.862 200.935 403.862C200.459 403.862 200.02 403.792 199.619 403.652C199.227 403.512 198.886 403.316 198.597 403.064C198.307 402.812 198.079 402.509 197.911 402.154C197.752 401.79 197.673 401.393 197.673 400.964C197.673 400.535 197.752 400.143 197.911 399.788C198.079 399.433 198.307 399.13 198.597 398.878C198.886 398.626 199.227 398.43 199.619 398.29C200.02 398.15 200.459 398.08 200.935 398.08ZM200.935 399.032C200.627 399.032 200.337 399.079 200.067 399.172C199.805 399.265 199.581 399.401 199.395 399.578C199.208 399.746 199.059 399.951 198.947 400.194C198.844 400.427 198.793 400.684 198.793 400.964C198.793 401.253 198.844 401.519 198.947 401.762C199.059 401.995 199.208 402.201 199.395 402.378C199.581 402.546 199.805 402.677 200.067 402.77C200.337 402.863 200.627 402.91 200.935 402.91C201.579 402.91 202.101 402.733 202.503 402.378C202.904 402.023 203.105 401.552 203.105 400.964C203.105 400.684 203.049 400.427 202.937 400.194C202.834 399.951 202.685 399.746 202.489 399.578C202.302 399.401 202.073 399.265 201.803 399.172C201.541 399.079 201.252 399.032 200.935 399.032ZM199.591 404.842H200.725V406.382H206.549V404.842H207.683V409.868H199.591V404.842ZM200.725 407.278V408.944H206.549V407.278H200.725Z" fill="#767676"/>
<path d="M250.474 402.49V403.456H248.402V410.036H247.254V397.492H248.402V402.49H250.474ZM242.088 398.444C242.555 398.444 242.979 398.547 243.362 398.752C243.745 398.957 244.076 399.251 244.356 399.634C244.636 400.017 244.851 400.479 245 401.02C245.159 401.552 245.238 402.154 245.238 402.826C245.238 403.498 245.159 404.105 245 404.646C244.851 405.178 244.636 405.635 244.356 406.018C244.076 406.401 243.745 406.695 243.362 406.9C242.979 407.105 242.555 407.208 242.088 407.208C241.621 407.208 241.192 407.105 240.8 406.9C240.417 406.695 240.086 406.401 239.806 406.018C239.526 405.635 239.307 405.178 239.148 404.646C238.999 404.105 238.924 403.498 238.924 402.826C238.924 402.154 238.999 401.552 239.148 401.02C239.307 400.479 239.526 400.017 239.806 399.634C240.086 399.251 240.417 398.957 240.8 398.752C241.192 398.547 241.621 398.444 242.088 398.444ZM242.088 406.186C242.387 406.186 242.662 406.107 242.914 405.948C243.166 405.789 243.381 405.565 243.558 405.276C243.745 404.977 243.889 404.623 243.992 404.212C244.095 403.801 244.146 403.339 244.146 402.826C244.146 402.322 244.095 401.865 243.992 401.454C243.889 401.034 243.745 400.679 243.558 400.39C243.381 400.101 243.166 399.877 242.914 399.718C242.662 399.559 242.387 399.48 242.088 399.48C241.78 399.48 241.5 399.559 241.248 399.718C240.996 399.877 240.777 400.101 240.59 400.39C240.413 400.679 240.273 401.034 240.17 401.454C240.067 401.865 240.016 402.322 240.016 402.826C240.016 403.339 240.067 403.801 240.17 404.212C240.273 404.623 240.413 404.977 240.59 405.276C240.777 405.565 240.996 405.789 241.248 405.948C241.5 406.107 241.78 406.186 242.088 406.186ZM260.749 397.478H261.897V410.064H260.749V397.478ZM255.275 398.444C255.742 398.444 256.171 398.547 256.563 398.752C256.955 398.957 257.291 399.251 257.571 399.634C257.851 400.017 258.07 400.479 258.229 401.02C258.388 401.552 258.467 402.154 258.467 402.826C258.467 403.498 258.388 404.105 258.229 404.646C258.07 405.178 257.851 405.635 257.571 406.018C257.291 406.401 256.955 406.695 256.563 406.9C256.171 407.105 255.742 407.208 255.275 407.208C254.808 407.208 254.379 407.105 253.987 406.9C253.595 406.695 253.259 406.401 252.979 406.018C252.699 405.635 252.48 405.178 252.321 404.646C252.162 404.105 252.083 403.498 252.083 402.826C252.083 402.154 252.162 401.552 252.321 401.02C252.48 400.479 252.699 400.017 252.979 399.634C253.259 399.251 253.595 398.957 253.987 398.752C254.379 398.547 254.808 398.444 255.275 398.444ZM255.275 399.48C254.967 399.48 254.682 399.559 254.421 399.718C254.169 399.877 253.95 400.101 253.763 400.39C253.576 400.679 253.432 401.034 253.329 401.454C253.226 401.865 253.175 402.322 253.175 402.826C253.175 403.339 253.226 403.801 253.329 404.212C253.432 404.623 253.576 404.977 253.763 405.276C253.95 405.565 254.169 405.789 254.421 405.948C254.682 406.107 254.967 406.186 255.275 406.186C255.583 406.186 255.863 406.107 256.115 405.948C256.367 405.789 256.586 405.565 256.773 405.276C256.96 404.977 257.104 404.623 257.207 404.212C257.31 403.801 257.361 403.339 257.361 402.826C257.361 402.322 257.31 401.865 257.207 401.454C257.104 401.034 256.96 400.679 256.773 400.39C256.586 400.101 256.367 399.877 256.115 399.718C255.863 399.559 255.583 399.48 255.275 399.48ZM273.628 397.478H274.776V410.064H273.628V397.478ZM266.446 399.634V405.962C267.052 405.962 267.612 405.957 268.126 405.948C268.639 405.929 269.124 405.906 269.582 405.878C270.048 405.85 270.501 405.808 270.94 405.752C271.378 405.696 271.831 405.626 272.298 405.542L272.424 406.508C271.938 406.592 271.467 406.662 271.01 406.718C270.552 406.774 270.081 406.821 269.596 406.858C269.11 406.886 268.602 406.909 268.07 406.928C267.538 406.937 266.954 406.942 266.32 406.942H265.312V398.668H271.248V399.634H266.446ZM276.791 410.806L280.991 397.198H281.915L277.729 410.806H276.791ZM291.989 397.478H293.137V410.05H291.989V397.478ZM283.575 398.542H284.709V401.86H288.349V398.542H289.483V407.012H283.575V398.542ZM284.709 402.77V406.074H288.349V402.77H284.709ZM306.03 397.492V403.946H304.882V397.492H306.03ZM302.264 398.178V403.302H296.398V398.178H302.264ZM301.144 402.392V399.088H297.518V402.392H301.144ZM299.058 408.986H306.464V409.896H297.938V406.746H304.896V405.472H297.896V404.576H306.03V407.6H299.058V408.986ZM314.905 401.958V404.632H309.249V398.318H310.383V400.53H313.771V398.318H314.905V401.02H317.803V397.478H318.965V406.774H317.803V401.958H314.905ZM313.771 403.708V401.44H310.383V403.708H313.771ZM312.035 408.818H319.259V409.756H310.887V405.864H312.035V408.818ZM332.25 399.312V400.25H322.058V399.312H326.608V397.674H327.756V399.312H332.25ZM327.756 407.628H332.88V408.566H321.498V407.628H326.608V405.864C325.479 405.799 324.601 405.561 323.976 405.15C323.36 404.739 323.052 404.184 323.052 403.484C323.052 403.101 323.145 402.765 323.332 402.476C323.528 402.177 323.803 401.93 324.158 401.734C324.522 401.529 324.956 401.375 325.46 401.272C325.973 401.16 326.547 401.104 327.182 401.104C327.807 401.104 328.372 401.16 328.876 401.272C329.38 401.375 329.809 401.529 330.164 401.734C330.519 401.93 330.789 402.177 330.976 402.476C331.172 402.765 331.27 403.101 331.27 403.484C331.27 404.184 330.957 404.739 330.332 405.15C329.716 405.551 328.857 405.789 327.756 405.864V407.628ZM324.214 403.484C324.214 403.96 324.475 404.329 324.998 404.59C325.521 404.851 326.249 404.982 327.182 404.982C328.087 404.982 328.801 404.851 329.324 404.59C329.847 404.329 330.108 403.96 330.108 403.484C330.108 403.008 329.847 402.644 329.324 402.392C328.801 402.131 328.087 402 327.182 402C326.249 402 325.521 402.131 324.998 402.392C324.475 402.644 324.214 403.008 324.214 403.484ZM344.858 403.498L344.312 404.38C343.584 404.165 342.958 403.839 342.436 403.4C341.913 402.961 341.512 402.448 341.232 401.86C340.961 402.513 340.55 403.078 340 403.554C339.449 404.03 338.805 404.389 338.068 404.632L337.508 403.722C337.974 403.582 338.399 403.391 338.782 403.148C339.164 402.905 339.491 402.625 339.762 402.308C340.042 401.991 340.256 401.645 340.406 401.272C340.564 400.889 340.644 400.493 340.644 400.082V399.872H337.858V398.948H340.644V397.422H341.792V398.948H344.564V399.872H341.792V400.082C341.792 400.455 341.862 400.819 342.002 401.174C342.151 401.529 342.361 401.855 342.632 402.154C342.902 402.453 343.224 402.719 343.598 402.952C343.98 403.185 344.4 403.367 344.858 403.498ZM347.252 400.586H349.114V401.538H347.252V404.772H346.104V397.492H347.252V400.586ZM347.462 406.368H343.948C344.004 406.695 344.148 407.007 344.382 407.306C344.615 407.595 344.909 407.861 345.264 408.104C345.628 408.347 346.038 408.557 346.496 408.734C346.962 408.902 347.448 409.028 347.952 409.112L347.518 409.994C347.06 409.919 346.617 409.807 346.188 409.658C345.768 409.509 345.376 409.327 345.012 409.112C344.648 408.907 344.321 408.669 344.032 408.398C343.752 408.127 343.523 407.838 343.346 407.53C342.991 408.165 342.44 408.692 341.694 409.112C340.947 409.541 340.107 409.831 339.174 409.98L338.768 409.098C339.272 409.023 339.752 408.902 340.21 408.734C340.676 408.566 341.087 408.361 341.442 408.118C341.806 407.875 342.1 407.605 342.324 407.306C342.557 407.007 342.697 406.695 342.744 406.368H339.244V405.458H347.462V406.368ZM359.543 397.478H360.691V410.036H359.543V397.478ZM351.129 398.836H357.009C357.009 399.741 356.901 400.619 356.687 401.468C356.472 402.308 356.127 403.106 355.651 403.862C355.184 404.609 354.582 405.309 353.845 405.962C353.107 406.606 352.216 407.185 351.171 407.698L350.555 406.76C352.244 405.957 353.518 404.963 354.377 403.778C355.235 402.593 355.725 401.253 355.847 399.76H351.129V398.836Z" fill="#767676"/>
<path d="M223.682 410.89V397.142H224.578V410.89H223.682Z" fill="#767676"/>
<rect x="24" y="451" width="210" height="1" fill="#C4C4C4"/>
<rect x="286" y="451" width="210" height="1" fill="#C4C4C4"/>
<path d="M258.256 451.288V452.226H253.734V446.654H258.102V447.578H254.882V451.288H258.256ZM253.09 450.938L253.202 451.876C252.502 452.035 251.858 452.133 251.27 452.17C250.682 452.207 250.066 452.226 249.422 452.226H248.736V446.668H252.95V447.606H249.87V451.274C250.402 451.265 250.929 451.241 251.452 451.204C251.975 451.157 252.521 451.069 253.09 450.938ZM253.986 455.488H259.138V456.426H247.742V455.488H252.838V452.842H253.986V455.488ZM270.687 449.258V450.196H262.147V445.94H263.295V449.258H270.687ZM260.607 451.876H271.989V452.8H260.607V451.876ZM263.211 454.06V456.79H270.757V457.728H262.063V454.06H263.211Z" fill="#767676"/>
<rect x="24.5" y="481.5" width="471" height="49" rx="4.5" fill="white" stroke="#767676"/>
<path d="M216.076 507.2V505.84H214.06C214.428 503.792 214.428 502.288 214.428 500.928V499.664H204.572V500.992H212.812C212.812 502.32 212.828 503.84 212.396 505.84H203.004V507.2H208.652V513.232H210.316V507.2H216.076ZM230.81 504.032H228.874C229.178 502.496 229.178 501.296 229.178 500.336V499.376H219.37V500.704H227.562C227.562 501.6 227.53 502.624 227.226 504.032H217.722V505.36H230.81V504.032ZM220.906 511.792V510.432H229.194V506.592H219.226V507.904H227.546V509.2H219.258V513.088H229.562V511.792H220.906ZM248.371 498.784H246.787V513.232H248.371V498.784ZM243.875 499.136V502.688H242.051C242.163 502 242.211 501.312 242.211 500.56H236.627V501.888H240.579C240.339 504.896 238.931 507.2 235.923 509.008L236.867 510.176C239.571 508.56 241.107 506.464 241.763 504.032H243.875V506.32H241.507V507.664H243.875V512.528H245.411V499.136H243.875ZM261.058 502.416H258.498V503.76H261.058V507.392H262.706V498.784H261.058V502.416ZM258.514 506.928L259.33 505.632C257.154 504.864 255.938 503.12 255.938 501.28V501.088H258.946V499.76H251.218V501.088H254.274V501.296C254.274 503.28 252.978 505.2 250.738 506L251.586 507.312C253.314 506.688 254.514 505.44 255.154 503.84C255.778 505.248 256.914 506.368 258.514 506.928ZM257.906 507.776C254.882 507.776 253.026 508.784 253.026 510.512C253.026 512.24 254.882 513.248 257.906 513.248C260.914 513.248 262.77 512.24 262.77 510.512C262.77 508.784 260.914 507.776 257.906 507.776ZM257.906 511.968C255.842 511.968 254.674 511.472 254.674 510.512C254.674 509.552 255.842 509.056 257.906 509.056C259.97 509.056 261.122 509.552 261.122 510.512C261.122 511.472 259.97 511.968 257.906 511.968ZM271.985 499.6C268.977 499.6 266.673 501.248 266.673 503.68C266.673 506.16 268.977 507.76 271.985 507.76C274.993 507.76 277.297 506.16 277.297 503.68C277.297 501.248 274.993 499.6 271.985 499.6ZM271.985 500.96C274.113 500.96 275.697 502.016 275.697 503.68C275.697 505.344 274.113 506.4 271.985 506.4C269.857 506.4 268.273 505.344 268.273 503.68C268.273 502.016 269.857 500.96 271.985 500.96ZM278.545 510.048H265.457V511.408H278.545V510.048ZM293.263 510.176H287.519V507.712H292.031V506.384H283.375V504.368H291.711V499.792H281.727V501.12H290.079V503.056H281.759V507.712H285.871V510.176H280.175V511.536H293.263V510.176ZM311.56 510.176H305.816V507.712H310.328V506.384H301.672V504.368H310.008V499.792H300.024V501.12H308.376V503.056H300.056V507.712H304.168V510.176H298.472V511.536H311.56V510.176ZM322.935 501.552V501.776C322.935 503.664 322.935 505.776 322.375 508.624L324.039 508.8C324.599 505.728 324.583 503.712 324.583 501.776V500.224H314.583V501.552H322.935ZM326.263 509.856H313.191V511.216H326.263V509.856ZM339.814 509.28V498.784H338.166V509.28H339.814ZM335.846 503.36C335.846 501.232 334.198 499.744 332.022 499.744C329.846 499.744 328.182 501.232 328.182 503.36C328.182 505.456 329.846 506.976 332.022 506.976C334.198 506.976 335.846 505.456 335.846 503.36ZM329.798 503.36C329.798 502.016 330.742 501.168 332.022 501.168C333.286 501.168 334.246 502.016 334.246 503.36C334.246 504.672 333.286 505.552 332.022 505.552C330.742 505.552 329.798 504.672 329.798 503.36ZM340.23 511.616H332.038V508.224H330.374V512.96H340.23V511.616Z" fill="#767676"/>
<path d="M60.5001 506.241C60.5001 505.535 60.4375 504.865 60.3302 504.212H50.228V508.244H56.0122C55.7529 509.567 54.993 510.685 53.8666 511.444V514.126H57.3174C59.3379 512.258 60.5001 509.504 60.5001 506.241Z" fill="#4285F4"/>
<path d="M50.228 516.728C53.1246 516.728 55.5473 515.762 57.3174 514.126L53.8666 511.444C52.9011 512.088 51.6763 512.482 50.228 512.482C47.4298 512.482 45.0607 510.595 44.2114 508.047H40.6533V510.81C42.4145 514.314 46.0352 516.728 50.228 516.728Z" fill="#34A853"/>
<path d="M44.2114 508.047C43.9879 507.404 43.8716 506.715 43.8716 506C43.8716 505.285 43.9968 504.596 44.2114 503.953V501.19H40.6533C39.9202 502.639 39.5 504.266 39.5 506C39.5 507.734 39.9202 509.361 40.6533 510.81L44.2114 508.047Z" fill="#FBBC05"/>
<path d="M50.228 499.519C51.8104 499.519 53.2229 500.064 54.3404 501.128L57.3979 498.07C55.5473 496.336 53.1246 495.272 50.228 495.272C46.0352 495.272 42.4145 497.686 40.6533 501.19L44.2114 503.953C45.0607 501.405 47.4298 499.519 50.228 499.519Z" fill="#EA4335"/>
<rect x="24.5" y="541.5" width="471" height="49" rx="4.5" fill="white" stroke="#2D9CDB"/>
<path d="M200.717 558.784H199.133V573.232H200.717V558.784ZM196.301 559.104V564.176H194.589V565.632H196.301V572.512H197.853V559.104H196.301ZM193.917 568.24V561.856H194.989V560.528H188.413V561.856H189.453V568.432H188.125L188.317 569.792C190.157 569.792 193.101 569.712 195.373 569.28L195.261 568.08C194.829 568.144 194.381 568.192 193.917 568.24ZM190.957 568.4V561.856H192.413V568.336C191.917 568.384 191.453 568.384 190.957 568.4ZM214.892 558.768H213.228V573.264H214.892V558.768ZM207.196 559.84C205.068 559.84 203.484 561.824 203.484 564.928C203.484 568.064 205.068 570.032 207.196 570.032C209.356 570.032 210.924 568.064 210.924 564.928C210.924 561.824 209.356 559.84 207.196 559.84ZM207.196 561.328C208.476 561.328 209.34 562.672 209.34 564.928C209.34 567.248 208.476 568.56 207.196 568.56C205.916 568.56 205.068 567.248 205.068 564.928C205.068 562.672 205.916 561.328 207.196 561.328ZM229.53 567.2L230.25 565.84C227.402 565.328 225.082 563.104 225.082 560.8V559.712H223.338V560.8C223.338 563.056 221.018 565.328 218.17 565.84L218.874 567.2C221.226 566.736 223.258 565.2 224.202 563.232C225.146 565.2 227.178 566.736 229.53 567.2ZM230.81 570.016H217.722V571.376H230.81V570.016ZM243.817 564.608V559.136H242.185V560.608H235.753V559.136H234.121V564.608H243.817ZM242.185 561.872V563.296H235.753V561.872H242.185ZM239.769 567.104H245.513V565.776H232.409V567.104H238.121V568.576H233.881V569.888H242.249V573.232H243.897V568.576H239.769V567.104ZM263.09 558.784H261.506V573.232H263.09V558.784ZM258.594 559.136V562.688H256.77C256.882 562 256.93 561.312 256.93 560.56H251.346V561.888H255.298C255.058 564.896 253.65 567.2 250.642 569.008L251.586 570.176C254.29 568.56 255.826 566.464 256.482 564.032H258.594V566.32H256.226V567.664H258.594V572.528H260.13V559.136H258.594ZM275.777 562.416H273.217V563.76H275.777V567.392H277.425V558.784H275.777V562.416ZM273.233 566.928L274.049 565.632C271.873 564.864 270.657 563.12 270.657 561.28V561.088H273.665V559.76H265.937V561.088H268.993V561.296C268.993 563.28 267.697 565.2 265.457 566L266.305 567.312C268.033 566.688 269.233 565.44 269.873 563.84C270.497 565.248 271.633 566.368 273.233 566.928ZM272.625 567.776C269.601 567.776 267.745 568.784 267.745 570.512C267.745 572.24 269.601 573.248 272.625 573.248C275.633 573.248 277.489 572.24 277.489 570.512C277.489 568.784 275.633 567.776 272.625 567.776ZM272.625 571.968C270.561 571.968 269.393 571.472 269.393 570.512C269.393 569.552 270.561 569.056 272.625 569.056C274.689 569.056 275.841 569.552 275.841 570.512C275.841 571.472 274.689 571.968 272.625 571.968ZM286.703 559.6C283.695 559.6 281.391 561.248 281.391 563.68C281.391 566.16 283.695 567.76 286.703 567.76C289.711 567.76 292.015 566.16 292.015 563.68C292.015 561.248 289.711 559.6 286.703 559.6ZM286.703 560.96C288.831 560.96 290.415 562.016 290.415 563.68C290.415 565.344 288.831 566.4 286.703 566.4C284.575 566.4 282.991 565.344 282.991 563.68C282.991 562.016 284.575 560.96 286.703 560.96ZM293.263 570.048H280.175V571.408H293.263V570.048ZM307.982 570.176H302.238V567.712H306.75V566.384H298.094V564.368H306.43V559.792H296.446V561.12H304.798V563.056H296.478V567.712H300.59V570.176H294.894V571.536H307.982V570.176ZM326.279 570.176H320.535V567.712H325.047V566.384H316.391V564.368H324.727V559.792H314.743V561.12H323.095V563.056H314.775V567.712H318.887V570.176H313.191V571.536H326.279V570.176ZM337.654 561.552V561.776C337.654 563.664 337.654 565.776 337.094 568.624L338.758 568.8C339.318 565.728 339.302 563.712 339.302 561.776V560.224H329.302V561.552H337.654ZM340.982 569.856H327.91V571.216H340.982V569.856ZM354.533 569.28V558.784H352.885V569.28H354.533ZM350.565 563.36C350.565 561.232 348.917 559.744 346.741 559.744C344.565 559.744 342.901 561.232 342.901 563.36C342.901 565.456 344.565 566.976 346.741 566.976C348.917 566.976 350.565 565.456 350.565 563.36ZM344.517 563.36C344.517 562.016 345.461 561.168 346.741 561.168C348.005 561.168 348.965 562.016 348.965 563.36C348.965 564.672 348.005 565.552 346.741 565.552C345.461 565.552 344.517 564.672 344.517 563.36ZM354.949 571.616H346.757V568.224H345.093V572.96H354.949V571.616Z" fill="#767676"/>
<path d="M55.8333 554.333H52.3333C50.7862 554.333 49.3025 554.948 48.2085 556.042C47.1146 557.136 46.5 558.62 46.5 560.167V563.667H43V568.333H46.5V577.667H51.1667V568.333H54.6667L55.8333 563.667H51.1667V560.167C51.1667 559.857 51.2896 559.56 51.5084 559.342C51.7272 559.123 52.0239 559 52.3333 559H55.8333V554.333Z" fill="#2D9CDB"/>
<rect x="24.5" y="601.5" width="471" height="49" rx="4.5" fill="white" stroke="#00BF18"/>
<path d="M208.496 618.768H206.912V633.232H208.496V618.768ZM203.856 619.072V623.504H200.784V624.848H203.856V632.544H205.392V619.072H203.856ZM198.4 628.256V620.24H196.768V629.664H197.744C199.536 629.664 201.088 629.584 202.928 629.216L202.72 627.84C201.184 628.144 199.872 628.208 198.4 628.256ZM222.751 618.768H221.087V633.264H222.751V618.768ZM215.055 619.84C212.927 619.84 211.343 621.824 211.343 624.928C211.343 628.064 212.927 630.032 215.055 630.032C217.215 630.032 218.783 628.064 218.783 624.928C218.783 621.824 217.215 619.84 215.055 619.84ZM215.055 621.328C216.335 621.328 217.199 622.672 217.199 624.928C217.199 627.248 216.335 628.56 215.055 628.56C213.775 628.56 212.927 627.248 212.927 624.928C212.927 622.672 213.775 621.328 215.055 621.328ZM237.582 618.768L235.918 618.752V624.016H232.894V619.92H231.278V623.552H227.758V619.904H226.126V629.728H232.894V625.344H235.918V633.264H237.582V618.768ZM231.278 624.848V628.384H227.758V624.848H231.278ZM256.231 618.784H254.647V633.232H256.231V618.784ZM251.735 619.136V622.688H249.911C250.023 622 250.071 621.312 250.071 620.56H244.487V621.888H248.439C248.199 624.896 246.791 627.2 243.783 629.008L244.727 630.176C247.431 628.56 248.967 626.464 249.623 624.032H251.735V626.32H249.367V627.664H251.735V632.528H253.271V619.136H251.735ZM268.917 622.416H266.357V623.76H268.917V627.392H270.565V618.784H268.917V622.416ZM266.373 626.928L267.189 625.632C265.013 624.864 263.797 623.12 263.797 621.28V621.088H266.805V619.76H259.077V621.088H262.133V621.296C262.133 623.28 260.837 625.2 258.597 626L259.445 627.312C261.173 626.688 262.373 625.44 263.013 623.84C263.637 625.248 264.773 626.368 266.373 626.928ZM265.765 627.776C262.741 627.776 260.885 628.784 260.885 630.512C260.885 632.24 262.741 633.248 265.765 633.248C268.773 633.248 270.629 632.24 270.629 630.512C270.629 628.784 268.773 627.776 265.765 627.776ZM265.765 631.968C263.701 631.968 262.533 631.472 262.533 630.512C262.533 629.552 263.701 629.056 265.765 629.056C267.829 629.056 268.981 629.552 268.981 630.512C268.981 631.472 267.829 631.968 265.765 631.968ZM279.844 619.6C276.836 619.6 274.532 621.248 274.532 623.68C274.532 626.16 276.836 627.76 279.844 627.76C282.852 627.76 285.156 626.16 285.156 623.68C285.156 621.248 282.852 619.6 279.844 619.6ZM279.844 620.96C281.972 620.96 283.556 622.016 283.556 623.68C283.556 625.344 281.972 626.4 279.844 626.4C277.716 626.4 276.132 625.344 276.132 623.68C276.132 622.016 277.716 620.96 279.844 620.96ZM286.404 630.048H273.316V631.408H286.404V630.048ZM301.123 630.176H295.379V627.712H299.891V626.384H291.235V624.368H299.571V619.792H289.587V621.12H297.939V623.056H289.619V627.712H293.731V630.176H288.035V631.536H301.123V630.176ZM319.42 630.176H313.676V627.712H318.188V626.384H309.532V624.368H317.868V619.792H307.884V621.12H316.236V623.056H307.916V627.712H312.028V630.176H306.332V631.536H319.42V630.176ZM330.794 621.552V621.776C330.794 623.664 330.794 625.776 330.234 628.624L331.898 628.8C332.458 625.728 332.442 623.712 332.442 621.776V620.224H322.442V621.552H330.794ZM334.122 629.856H321.05V631.216H334.122V629.856ZM347.673 629.28V618.784H346.025V629.28H347.673ZM343.705 623.36C343.705 621.232 342.057 619.744 339.881 619.744C337.705 619.744 336.041 621.232 336.041 623.36C336.041 625.456 337.705 626.976 339.881 626.976C342.057 626.976 343.705 625.456 343.705 623.36ZM337.657 623.36C337.657 622.016 338.601 621.168 339.881 621.168C341.145 621.168 342.105 622.016 342.105 623.36C342.105 624.672 341.145 625.552 339.881 625.552C338.601 625.552 337.657 624.672 337.657 623.36ZM348.089 631.616H339.897V628.224H338.233V632.96H348.089V631.616Z" fill="#767676"/>
<path d="M60.9977 625.999C60.9977 628.927 60.9977 631.855 60.9977 634.784C60.9977 636.088 60.0909 636.999 58.7863 637C52.9402 637 47.0943 637 41.2485 637C39.9297 637 39.0044 636.091 39.0033 634.776C38.9989 628.92 38.9989 623.065 39.0033 617.211C39.0033 615.906 39.9265 615.001 41.2267 615H58.7672C60.1078 615 60.9999 615.899 60.9999 617.246C61.0003 620.161 60.9995 623.079 60.9977 625.999ZM48.2521 626.042C48.3437 626.083 48.3792 626.171 48.4288 626.241C49.4835 627.722 50.5404 629.201 51.5858 630.689C51.7309 630.896 51.8826 630.99 52.1423 630.986C53.1244 630.971 54.1066 630.971 55.0887 630.986C55.3549 630.989 55.4297 630.897 55.4291 630.64C55.4226 627.539 55.4226 624.439 55.4291 621.338C55.4291 621.09 55.3506 621.005 55.1018 621.008C54.1289 621.019 53.1561 621.021 52.1833 621.008C51.9104 621.003 51.8226 621.086 51.8248 621.364C51.8373 622.818 51.8308 624.273 51.8308 625.729C51.8308 625.819 51.8308 625.91 51.8308 626.001C51.8308 626.046 51.8362 626.1 51.7877 626.121C51.72 626.151 51.6911 626.089 51.6595 626.049C51.6142 625.994 51.5765 625.93 51.5356 625.87C50.4844 624.331 49.4342 622.791 48.3852 621.251C48.2701 621.08 48.1435 621.009 47.9383 621.011C46.9289 621.019 45.9195 621.019 44.9101 621.011C44.6706 621.011 44.5746 621.07 44.5751 621.331C44.5835 624.441 44.5835 627.551 44.5751 630.661C44.5751 630.909 44.6477 630.993 44.9025 630.988C45.8934 630.976 46.8844 630.976 47.8756 630.988C48.1331 630.992 48.2221 630.92 48.2199 630.652C48.2084 629.216 48.2139 627.779 48.2161 626.342C48.2111 626.241 48.18 626.139 48.2542 626.04L48.2521 626.042Z" fill="#00BF18"/>
<rect x="24.5" y="661.5" width="471" height="49" rx="4.5" fill="white" stroke="#F2C94C"/>
<path d="M201.661 685.856V684.48H199.469V678.768H197.821V693.216H199.469V685.856H201.661ZM195.741 680.224H189.165V681.568H194.109C194.045 682.368 193.917 683.12 193.725 683.824L188.429 684.16L188.653 685.584L193.229 685.136C192.381 686.944 190.893 688.4 188.333 689.68L189.229 690.96C194.477 688.32 195.741 684.544 195.741 680.224ZM216.38 685.856V684.48H214.188V678.768H212.54V693.216H214.188V685.856H216.38ZM210.46 680.224H203.884V681.568H208.828C208.764 682.368 208.636 683.12 208.444 683.824L203.148 684.16L203.372 685.584L207.948 685.136C207.1 686.944 205.612 688.4 203.052 689.68L203.948 690.96C209.196 688.32 210.46 684.544 210.46 680.224ZM230.81 690.112H225.066V687.36C227.706 687.104 229.562 685.648 229.562 683.504C229.562 681.136 227.306 679.632 224.25 679.632C221.178 679.632 218.938 681.136 218.938 683.504C218.938 685.664 220.778 687.088 223.418 687.344V690.112H217.722V691.456H230.81V690.112ZM220.538 683.504C220.538 681.92 222.09 680.944 224.25 680.944C226.394 680.944 227.946 681.92 227.946 683.504C227.946 685.088 226.394 686.064 224.25 686.064C222.09 686.064 220.538 685.088 220.538 683.504ZM245.497 686.528H239.785V685.2H244.041V683.936H235.737V682.768H243.593V681.536H235.737V680.416H243.945V679.152H234.089V685.2H238.121V686.528H232.409V687.856H245.497V686.528ZM233.881 688.928V690.24H242.201V693.232H243.849V688.928H233.881ZM263.09 678.784H261.506V693.232H263.09V678.784ZM258.594 679.136V682.688H256.77C256.882 682 256.93 681.312 256.93 680.56H251.346V681.888H255.298C255.058 684.896 253.65 687.2 250.642 689.008L251.586 690.176C254.29 688.56 255.826 686.464 256.482 684.032H258.594V686.32H256.226V687.664H258.594V692.528H260.13V679.136H258.594ZM275.777 682.416H273.217V683.76H275.777V687.392H277.425V678.784H275.777V682.416ZM273.233 686.928L274.049 685.632C271.873 684.864 270.657 683.12 270.657 681.28V681.088H273.665V679.76H265.937V681.088H268.993V681.296C268.993 683.28 267.697 685.2 265.457 686L266.305 687.312C268.033 686.688 269.233 685.44 269.873 683.84C270.497 685.248 271.633 686.368 273.233 686.928ZM272.625 687.776C269.601 687.776 267.745 688.784 267.745 690.512C267.745 692.24 269.601 693.248 272.625 693.248C275.633 693.248 277.489 692.24 277.489 690.512C277.489 688.784 275.633 687.776 272.625 687.776ZM272.625 691.968C270.561 691.968 269.393 691.472 269.393 690.512C269.393 689.552 270.561 689.056 272.625 689.056C274.689 689.056 275.841 689.552 275.841 690.512C275.841 691.472 274.689 691.968 272.625 691.968ZM286.703 679.6C283.695 679.6 281.391 681.248 281.391 683.68C281.391 686.16 283.695 687.76 286.703 687.76C289.711 687.76 292.015 686.16 292.015 683.68C292.015 681.248 289.711 679.6 286.703 679.6ZM286.703 680.96C288.831 680.96 290.415 682.016 290.415 683.68C290.415 685.344 288.831 686.4 286.703 686.4C284.575 686.4 282.991 685.344 282.991 683.68C282.991 682.016 284.575 680.96 286.703 680.96ZM293.263 690.048H280.175V691.408H293.263V690.048ZM307.982 690.176H302.238V687.712H306.75V686.384H298.094V684.368H306.43V679.792H296.446V681.12H304.798V683.056H296.478V687.712H300.59V690.176H294.894V691.536H307.982V690.176ZM326.279 690.176H320.535V687.712H325.047V686.384H316.391V684.368H324.727V679.792H314.743V681.12H323.095V683.056H314.775V687.712H318.887V690.176H313.191V691.536H326.279V690.176ZM337.654 681.552V681.776C337.654 683.664 337.654 685.776 337.094 688.624L338.758 688.8C339.318 685.728 339.302 683.712 339.302 681.776V680.224H329.302V681.552H337.654ZM340.982 689.856H327.91V691.216H340.982V689.856ZM354.533 689.28V678.784H352.885V689.28H354.533ZM350.565 683.36C350.565 681.232 348.917 679.744 346.741 679.744C344.565 679.744 342.901 681.232 342.901 683.36C342.901 685.456 344.565 686.976 346.741 686.976C348.917 686.976 350.565 685.456 350.565 683.36ZM344.517 683.36C344.517 682.016 345.461 681.168 346.741 681.168C348.005 681.168 348.965 682.016 348.965 683.36C348.965 684.672 348.005 685.552 346.741 685.552C345.461 685.552 344.517 684.672 344.517 683.36ZM354.949 691.616H346.757V688.224H345.093V692.96H354.949V691.616Z" fill="#767676"/>
<path d="M60.5 685.417C60.504 686.957 60.1442 688.476 59.45 689.85C58.6268 691.497 57.3614 692.882 55.7954 693.851C54.2293 694.819 52.4246 695.333 50.5833 695.333C49.0435 695.337 47.5245 694.978 46.15 694.283L39.5 696.5L41.7167 689.85C41.0224 688.476 40.6627 686.957 40.6667 685.417C40.6674 683.575 41.1807 681.771 42.1492 680.205C43.1176 678.639 44.503 677.373 46.15 676.55C47.5245 675.856 49.0435 675.496 50.5833 675.5H51.1667C53.5984 675.634 55.8952 676.661 57.6173 678.383C59.3394 680.105 60.3658 682.402 60.5 684.833V685.417Z" fill="#F2C94C"/>
<path d="M480.159 37.9999L496 22.1591" stroke="#767676"/>
<path d="M495.841 37.8408L480 22" stroke="#767676"/>
</g>
<defs>
<clipPath id="clip0_1959_2741">
<rect width="520" height="736" fill="white"/>
</clipPath>
</defs>
</svg>
